HIERARCHY
ROOT Hips
{
  OFFSET 0 0 0
  CHANNELS 6 Xposition Yposition Zposition Zrotation Yrotation Xrotation
  JOINT LeftThigh
  {
    OFFSET 8.409438 0 -5.917753
    CHANNELS 3 Zrotation Yrotation Xrotation
    JOINT LeftLeg
    {
      OFFSET 0 0 -42.358652
      CHANNELS 3 Zrotation Yrotation Xrotation
      JOINT LeftFoot
      {
        OFFSET 0 0 -39.357303
        CHANNELS 3 Zrotation Yrotation Xrotation
      }
    }
  }
  JOINT RightThigh
  {
    OFFSET -8.409438 0 -5.917753
    CHANNELS 3 Zrotation Yrotation Xrotation
    JOINT RightLeg
    {
      OFFSET 0 0 -42.358652
      CHANNELS 3 Zrotation Yrotation Xrotation
      JOINT RightFoot
      {
        OFFSET 0 0 -39.357303
        CHANNELS 3 Zrotation Yrotation Xrotation
      }
    }
  }
  JOINT SpineLow
  {
    OFFSET 0 0 4.719101
    CHANNELS 3 Zrotation Yrotation Xrotation
    JOINT SpineMid
    {
      OFFSET 0 0 12.899191
      CHANNELS 3 Zrotation Yrotation Xrotation
      JOINT Chest
      {
        OFFSET 0 0 12.899191
        CHANNELS 3 Zrotation Yrotation Xrotation
        JOINT LeftShoulder
        {
          OFFSET 7.550562 1.41573 9.438202
          CHANNELS 3 Zrotation Yrotation Xrotation
          JOINT LeftArm
          {
            OFFSET 9.155056 0 4.247191
            CHANNELS 3 Zrotation Yrotation Xrotation
            JOINT LeftForearm
            {
              OFFSET 0 0 25.771955
              CHANNELS 3 Zrotation Yrotation Xrotation
              JOINT LeftHand
              {
                OFFSET 0 0 25.197169
                CHANNELS 3 Zrotation Yrotation Xrotation
              }
            }
          }
        }
        JOINT RightShoulder
        {
          OFFSET -7.550562 1.41573 9.438202
          CHANNELS 3 Zrotation Yrotation Xrotation
          JOINT RightArm
          {
            OFFSET -9.155056 0 4.247191
            CHANNELS 3 Zrotation Yrotation Xrotation
            JOINT RightForearm
            {
              OFFSET 0 0 -25.771955
              CHANNELS 3 Zrotation Yrotation Xrotation
              JOINT RightHand
              {
                OFFSET 0 0 -25.197169
                CHANNELS 3 Zrotation Yrotation Xrotation
              }
            }
          }
        }
        JOINT Neck
        {
          OFFSET 0 0 15.101124
          CHANNELS 3 Zrotation Yrotation Xrotation
          JOINT Head
          {
            OFFSET 0 0 11.325843
            CHANNELS 3 Zrotation Yrotation Xrotation
            End Site
            {
              OFFSET 0 0 14.157303
            }
          }
        }
      }
    }
  }
}
MOTION
Frames: 5
Frame Time: 0.0
0.0  89.887642  0.0  96.490129  -31.707077  177.942741  8.449738  -52.90637  -6.361751  -2.949337  13.345583  21.588481  -7.954365  1.24635  8.471496  -1.693712  38.239157  -22.072619  7.27527  18.792442  28.47066  10.518743  4.527465  -2.224389  0.555865  5.935387  2.200786  2.106341  16.155057  6.270755  2.106341  16.155057  6.270755  -2.356845  0.990494  3.290948  -161.822757  45.916425  -162.660584  -61.88818  7.960458  78.696463  55.259743  48.002387  -58.57558  8.178131  -10.088034  14.89931  132.599769  22.570088  43.453488  -4.533985  3.104522  -87.375513  79.719211  41.524906  -19.50706  26.615813  15.658106  2.147489  19.779225  11.862613  0.9043  
0.0  89.887642  0.0  97.077305  -31.5889  177.900459  1.639169  -55.443876  -3.290832  3.880531  17.484825  26.144161  -5.681426  0.845978  9.152356  -1.192516  38.816283  -22.475735  8.110924  18.49922  29.228099  9.864804  3.991767  -1.602862  0.772143  5.860697  2.001382  2.649865  15.939311  5.764608  2.649865  15.939311  5.764608  -0.118959  1.920908  4.474452  -163.972143  45.472626  -161.758537  -61.205626  7.666017  79.97867  55.605628  48.012555  -57.807973  7.730102  -9.751134  15.382118  135.839855  22.797344  44.476425  -6.508807  0.924848  -88.274116  79.195345  40.778475  -17.914821  26.468143  15.337923  2.807195  19.658905  11.64973  1.416312  
0.0  89.887642  0.0  97.224411  -31.455822  178.095921  -5.715428  -57.628511  0.587734  10.545669  21.329951  30.936566  -4.595793  0.555081  9.418969  -2.267422  39.408505  -24.820993  9.915276  17.369283  31.219051  9.185997  3.644199  -1.738356  0.94239  5.841554  1.88481  3.092395  15.877797  5.48096  3.092394  15.877796  5.480959  0.885049  2.564091  4.802699  -165.278216  44.94204  -161.652749  -60.156216  7.530465  81.471103  55.826825  48.000146  -57.329963  7.07999  -9.630675  15.332411  138.314191  22.871289  44.805721  -7.193017  -1.35577  -88.689638  78.618638  40.315484  -16.463793  26.567285  15.295452  3.415765  19.718426  11.644904  1.870521  
0.0  89.887642  0.0  96.878791  -31.254891  178.448148  -10.963405  -58.121746  3.834162  15.028059  23.850117  34.363132  -4.732168  0.360185  9.471855  -4.742565  39.397752  -27.937427  12.001444  16.326212  33.082535  8.5743  2.755715  -1.402602  0.996792  5.806431  1.74715  3.206189  15.784632  5.108695  3.206189  15.784632  5.108695  0.348435  3.07925  6.18653  -164.038758  43.773049  -160.924108  -59.157657  7.704925  83.011704  56.173106  48.034042  -56.808547  6.785028  -9.478393  15.266557  140.217497  22.411649  44.536869  -7.114101  -3.210843  -89.047078  78.411013  39.998104  -15.033886  26.95752  15.342304  4.115091  19.990746  11.71391  2.380822  
0.0  89.887642  0.0  96.567423  -30.875024  178.089622  -14.892694  -55.668505  7.834712  17.160293  24.487535  35.303793  -5.020564  0.319151  9.506645  -7.231985  39.039117  -29.803098  14.01009  15.612813  33.933282  8.400694  2.74262  -1.148931  1.109245  5.75683  1.750167  3.514667  15.639967  5.140649  3.514666  15.639967  5.140649  -1.146686  3.859795  7.598139  -162.13245  42.676875  -160.120002  -58.412967  7.829548  84.372509  56.651751  48.228937  -56.043702  6.62985  -8.993891  15.503338  141.684577  22.388574  44.391552  -6.930671  -4.772752  -89.408236  78.908064  39.9672  -13.932139  27.234724  15.625684  4.775932  20.173793  11.958762  2.853221  
